<svg width="33" height="33" viewBox="0 0 33 33" fill="none" xmlns="http://www.w3.org/2000/svg">
<rect width="33" height="33" rx="5" fill="black"/>
<path d="M2.032 9.38325V8.71125H9.112C11.16 8.71125 12.728 9.31125 13.816 10.5112C14.92 11.7112 15.472 13.5752 15.472 16.1032V17.6152C15.472 20.1432 14.92 22.0152 13.816 23.2312C12.728 24.4312 11.16 25.0312 9.112 25.0312H2.032V24.3592L3.352 24.1912C3.608 24.1592 3.76 24.0952 3.808 23.9992C3.856 23.8872 3.88 23.5592 3.88 23.0152V10.7272C3.88 10.1832 3.856 9.86325 3.808 9.76725C3.76 9.65525 3.608 9.58325 3.352 9.55125L2.032 9.38325ZM8.992 9.55125H6.76V24.1912H8.992C9.808 24.1912 10.464 24.0552 10.96 23.7832C11.456 23.4952 11.816 22.9672 12.04 22.1992C12.28 21.4152 12.4 20.2872 12.4 18.8152V14.9032C12.4 13.4312 12.28 12.3112 12.04 11.5432C11.816 10.7752 11.456 10.2552 10.96 9.98325C10.464 9.69525 9.808 9.55125 8.992 9.55125ZM25.5027 25.2713C24.0307 25.2713 22.7827 24.9593 21.7587 24.3352C20.7347 23.6952 19.9587 22.7992 19.4307 21.6472C18.9027 20.4952 18.6387 19.1512 18.6387 17.6152V16.1032C18.6387 14.5672 18.8707 13.2312 19.3347 12.0952C19.8147 10.9432 20.5267 10.0552 21.4707 9.43125C22.4147 8.79125 23.5987 8.47125 25.0227 8.47125C26.2387 8.47125 27.2547 8.71125 28.0707 9.19125C28.8867 9.65525 29.4867 10.2792 29.8707 11.0632C30.2707 11.8312 30.4387 12.6712 30.3747 13.5832L27.5667 14.2792C27.7267 12.6792 27.5587 11.4552 27.0627 10.6072C26.5827 9.74325 25.8627 9.31125 24.9027 9.31125C23.8787 9.31125 23.0867 9.74325 22.5267 10.6072C21.9827 11.4712 21.7107 12.9032 21.7107 14.9032V18.8152C21.7107 20.7992 22.0227 22.2312 22.6467 23.1112C23.2707 23.9912 24.2227 24.4312 25.5027 24.4312C26.0307 24.4312 26.5187 24.3352 26.9667 24.1432C27.4307 23.9512 27.8147 23.6232 28.1187 23.1592C28.4387 22.6792 28.6387 22.0072 28.7187 21.1432L30.4467 21.5992C30.2227 22.4952 29.8627 23.2152 29.3667 23.7592C28.8707 24.3032 28.2867 24.6952 27.6147 24.9352C26.9587 25.1593 26.2547 25.2713 25.5027 25.2713Z" fill="white"/>
</svg>
